<svg width="169" height="29" viewBox="0 0 169 29" fill="none" xmlns="http://www.w3.org/2000/svg">
<g clip-path="url(#clip0_5_439)">
<path d="M155.884 29C155.112 29 154.358 28.8704 153.608 28.6111C152.858 28.3471 152.242 27.986 151.762 27.5275L153.173 24.7864C153.537 25.1105 153.945 25.3698 154.398 25.5689C154.85 25.768 155.325 25.8652 155.827 25.8652C156.479 25.8652 157.007 25.6985 157.411 25.3513C157.814 25.0133 158.192 24.4345 158.538 23.6103L159.403 21.5636L159.749 21.0867L165.539 6.88536H169L161.794 24.2724C161.315 25.4578 160.778 26.3977 160.193 27.0877C159.607 27.7776 158.95 28.273 158.231 28.5601C157.513 28.8518 156.727 28.9954 155.884 28.9954V29ZM159.026 23.5269L152.077 6.89462H155.796L161.475 20.7626L159.026 23.5269Z" fill="#F5F1E9"/>
<path d="M51.9259 22.9342V1.29651H60.4538C62.2907 1.29651 63.8658 1.60211 65.1792 2.20869C66.4925 2.81527 67.5041 3.69504 68.214 4.85263C68.924 6.00559 69.2789 7.38544 69.2789 8.99218C69.2789 10.5989 68.924 11.9417 68.214 13.0715C67.5041 14.206 66.4925 15.0811 65.1792 15.7016C63.8658 16.3174 62.2907 16.6277 60.4538 16.6277H54.0867L55.7728 14.8357V22.9342H51.9259ZM55.7728 15.2663L54.0867 13.3216H60.2763C61.9757 13.3216 63.2535 12.9373 64.1143 12.1779C64.9751 11.4139 65.401 10.3535 65.401 8.99218C65.401 7.63085 64.9751 6.57976 64.1143 5.82964C63.2535 5.07489 61.9757 4.69983 60.2763 4.69983H54.0867L55.7728 2.72266V15.271V15.2663ZM65.4853 22.9342L60.2452 15.0811H64.3627L69.6339 22.9342H65.4853Z" fill="#F5F1E9"/>
<path d="M139.139 23.1472C137.617 23.1472 136.255 22.7999 135.039 22.0961C133.824 21.3969 132.874 20.4153 132.182 19.1466C131.49 17.8779 131.144 16.3915 131.144 14.6783C131.144 12.965 131.49 11.5065 132.182 10.2285C132.874 8.9505 133.824 7.9596 135.039 7.26042C136.255 6.5566 137.622 6.20932 139.139 6.20932C140.461 6.20932 141.646 6.51493 142.693 7.12151C143.74 7.72809 144.57 8.65416 145.182 9.90436C145.795 11.1499 146.101 12.7428 146.101 14.6783C146.101 16.6138 145.803 18.1835 145.213 19.4383C144.623 20.6977 143.807 21.6285 142.773 22.235C141.735 22.8416 140.523 23.1426 139.144 23.1426L139.139 23.1472ZM139.587 19.8735C140.475 19.8735 141.269 19.6605 141.97 19.2392C142.671 18.8224 143.23 18.2112 143.656 17.4194C144.077 16.6277 144.29 15.7108 144.29 14.6829C144.29 13.655 144.077 12.7196 143.656 11.951C143.23 11.1777 142.667 10.5804 141.97 10.159C141.269 9.73767 140.475 9.52467 139.587 9.52467C138.7 9.52467 137.906 9.73767 137.2 10.159C136.499 10.5804 135.94 11.1823 135.514 11.951C135.093 12.7243 134.88 13.6318 134.88 14.6829C134.88 15.734 135.093 16.6277 135.514 17.4194C135.94 18.2112 136.504 18.8224 137.2 19.2392C137.901 19.6605 138.695 19.8735 139.587 19.8735ZM144.41 22.9342V19.0401L144.499 14.6505L144.202 10.2609V0H147.933V22.9342H144.41Z" fill="#F5F1E9"/>
<path d="M126.853 10.3072C126.134 9.03848 125.114 8.03832 123.801 7.30672C122.487 6.57975 120.952 6.20932 119.195 6.20932C117.815 6.20932 116.586 6.43158 115.508 6.88998C114.43 7.34376 113.529 8.00127 112.801 8.86252L114.811 11.2749C115.366 10.6776 115.996 10.2285 116.706 9.91825C117.416 9.60801 118.214 9.45058 119.106 9.45058C120.153 9.45058 121.072 9.66358 121.862 10.0849C122.651 10.5063 123.259 11.1036 123.685 11.8676C123.951 12.3399 124.102 12.8771 124.204 13.442H112.806C112.229 13.442 111.754 13.9374 111.767 14.5394C111.767 14.544 111.767 14.5486 111.767 14.5532C111.767 16.3035 112.114 17.8223 112.806 19.0956C113.498 20.3736 114.443 21.3691 115.65 22.0776C116.852 22.786 118.228 23.1426 119.763 23.1426C121.298 23.1426 122.749 22.7768 123.982 22.0452C125.216 21.3182 126.183 20.3181 126.884 19.0493C127.585 17.7806 127.936 16.322 127.936 14.6783C127.936 13.0345 127.576 11.5713 126.858 10.3072H126.853ZM123.761 17.6787C123.383 18.4196 122.847 18.9938 122.146 19.3966C121.444 19.7995 120.65 19.9986 119.758 19.9986C118.867 19.9986 118.063 19.7948 117.389 19.3966C116.719 18.9938 116.191 18.4242 115.805 17.6973C115.534 17.1879 115.401 16.6138 115.33 16.0118H124.226C124.142 16.6138 124.009 17.1833 123.756 17.6787H123.761Z" fill="#F5F1E9"/>
<path d="M93.1543 19.054C93.8731 20.3227 94.8936 21.3228 96.2069 22.0544C97.5203 22.7814 99.0555 23.1518 100.813 23.1518C102.192 23.1518 103.421 22.9296 104.5 22.4712C105.578 22.0174 106.479 21.3599 107.206 20.4986L105.196 18.0862C104.642 18.6835 104.012 19.1327 103.302 19.4429C102.592 19.7531 101.793 19.9106 100.901 19.9106C99.8541 19.9106 98.9357 19.6976 98.1459 19.2762C97.3561 18.8549 96.7482 18.2575 96.3223 17.4935C96.0561 17.0212 95.9052 16.4841 95.8032 15.9192H107.202C107.779 15.9192 108.253 15.4238 108.24 14.8218C108.24 14.8172 108.24 14.8125 108.24 14.8079C108.24 13.0576 107.894 11.5389 107.202 10.2655C106.51 8.98754 105.565 7.99201 104.358 7.28357C103.155 6.57512 101.78 6.21858 100.245 6.21858C98.7094 6.21858 97.2585 6.58438 96.025 7.31598C94.7915 8.04295 93.8243 9.04311 93.1232 10.3118C92.4222 11.5805 92.0717 13.0391 92.0717 14.6829C92.0717 16.3267 92.4311 17.7899 93.1498 19.054H93.1543ZM96.2513 11.6824C96.6284 10.9416 97.1653 10.3674 97.8664 9.96455C98.5674 9.56171 99.3616 9.3626 100.253 9.3626C101.145 9.3626 101.948 9.56634 102.623 9.96455C103.293 10.3674 103.821 10.9369 104.207 11.6639C104.477 12.1732 104.611 12.7474 104.682 13.3493H95.7854C95.8697 12.7474 96.0028 12.1779 96.2557 11.6824H96.2513Z" fill="#F5F1E9"/>
<path d="M73.4675 19.054C74.1862 20.3227 75.2067 21.3228 76.5201 22.0544C77.8334 22.7814 79.3686 23.1518 81.1257 23.1518C82.5056 23.1518 83.7346 22.9296 84.8128 22.4712C85.891 22.0174 86.7917 21.3599 87.5194 20.4986L85.5094 18.0862C84.9548 18.6835 84.3247 19.1327 83.6148 19.4429C82.9049 19.7531 82.1062 19.9106 81.2144 19.9106C80.1673 19.9106 79.2488 19.6976 78.459 19.2762C77.6693 18.8549 77.0614 18.2575 76.6355 17.4935C76.3692 17.0212 76.2184 16.4841 76.1163 15.9192H87.5149C88.0917 15.9192 88.5665 15.4238 88.5532 14.8218C88.5532 14.8172 88.5532 14.8125 88.5532 14.8079C88.5532 13.0576 88.2071 11.5389 87.5149 10.2655C86.8228 8.98754 85.8777 7.99201 84.6708 7.28357C83.4684 6.57512 82.0929 6.21858 80.5577 6.21858C79.0225 6.21858 77.5717 6.58438 76.3382 7.31598C75.1047 8.04295 74.1374 9.04311 73.4364 10.3118C72.7353 11.5805 72.3848 13.0391 72.3848 14.6829C72.3848 16.3267 72.7442 17.7899 73.463 19.054H73.4675ZM76.56 11.6824C76.9372 10.9416 77.474 10.3674 78.1751 9.96455C78.8761 9.56171 79.6703 9.3626 80.5622 9.3626C81.454 9.3626 82.2571 9.56634 82.9315 9.96455C83.6015 10.3674 84.1295 10.9369 84.5155 11.6639C84.7862 12.1732 84.9193 12.7474 84.9903 13.3493H76.0941C76.1784 12.7474 76.3115 12.1779 76.5645 11.6824H76.56Z" fill="#F5F1E9"/>
<path d="M10.3737 1.32428C4.64551 1.32428 0 6.17228 0 12.1501C0 18.1279 4.64551 22.9759 10.3737 22.9759H31.121V1.32428H10.3737Z" fill="#EDD271"/>
<path d="M20.7473 22.9759C26.4765 22.9759 31.121 18.129 31.121 12.1501C31.121 6.17116 26.4765 1.32428 20.7473 1.32428C15.0181 1.32428 10.3737 6.17116 10.3737 12.1501C10.3737 18.129 15.0181 22.9759 20.7473 22.9759Z" fill="#9CCD9A"/>
<path d="M31.1165 22.9759C36.8457 22.9759 41.4902 18.129 41.4902 12.1501C41.4902 6.17116 36.8457 1.32428 31.1165 1.32428C25.3873 1.32428 20.7429 6.17116 20.7429 12.1501C20.7429 18.129 25.3873 22.9759 31.1165 22.9759Z" fill="#49AD82"/>
</g>
<defs>
<clipPath id="clip0_5_439">
<rect width="169" height="29" fill="white"/>
</clipPath>
</defs>
</svg>
